<mxfile host="app.diagrams.net" modified="2024-03-06T15:52:45.249Z" agent="Mozilla/5.0 (Windows NT 10.0; Win64; x64) AppleWebKit/537.36 (KHTML, like Gecko) Chrome/122.0.0.0 Safari/537.36" etag="NZIPXDKUSf7q14SDVgbq" version="24.0.1" type="github">
  <diagram id="C5RBs43oDa-KdzZeNtuy" name="Page-1">
    <mxGraphModel dx="954" dy="600" grid="1" gridSize="10" guides="1" tooltips="1" connect="1" arrows="1" fold="1" page="1" pageScale="1" pageWidth="827" pageHeight="1169" math="0" shadow="0">
      <root>
        <mxCell id="WIyWlLk6GJQsqaUBKTNV-0" />
        <mxCell id="WIyWlLk6GJQsqaUBKTNV-1" parent="WIyWlLk6GJQsqaUBKTNV-0" />
        <mxCell id="CqPZ0iAuUNlFJW2x2mbF-0" value="Inicio" style="strokeWidth=2;html=1;shape=mxgraph.flowchart.start_1;whiteSpace=wrap;" vertex="1" parent="WIyWlLk6GJQsqaUBKTNV-1">
          <mxGeometry x="254" y="10" width="46" height="40" as="geometry" />
        </mxCell>
        <mxCell id="CqPZ0iAuUNlFJW2x2mbF-1" value="Fin" style="strokeWidth=2;html=1;shape=mxgraph.flowchart.start_1;whiteSpace=wrap;" vertex="1" parent="WIyWlLk6GJQsqaUBKTNV-1">
          <mxGeometry x="677" y="500" width="46" height="40" as="geometry" />
        </mxCell>
        <mxCell id="CqPZ0iAuUNlFJW2x2mbF-24" style="edgeStyle=orthogonalEdgeStyle;rounded=0;orthogonalLoop=1;jettySize=auto;html=1;exitX=0.5;exitY=1;exitDx=0;exitDy=0;exitPerimeter=0;entryX=0.5;entryY=0;entryDx=0;entryDy=0;" edge="1" parent="WIyWlLk6GJQsqaUBKTNV-1" source="CqPZ0iAuUNlFJW2x2mbF-2" target="CqPZ0iAuUNlFJW2x2mbF-3">
          <mxGeometry relative="1" as="geometry" />
        </mxCell>
        <mxCell id="CqPZ0iAuUNlFJW2x2mbF-26" style="edgeStyle=orthogonalEdgeStyle;rounded=0;orthogonalLoop=1;jettySize=auto;html=1;exitX=1;exitY=0.5;exitDx=0;exitDy=0;exitPerimeter=0;entryX=0;entryY=0.5;entryDx=0;entryDy=0;" edge="1" parent="WIyWlLk6GJQsqaUBKTNV-1" source="CqPZ0iAuUNlFJW2x2mbF-2" target="CqPZ0iAuUNlFJW2x2mbF-4">
          <mxGeometry relative="1" as="geometry" />
        </mxCell>
        <mxCell id="CqPZ0iAuUNlFJW2x2mbF-2" value="¿Ya tiene cuenta?" style="strokeWidth=2;html=1;shape=mxgraph.flowchart.decision;whiteSpace=wrap;" vertex="1" parent="WIyWlLk6GJQsqaUBKTNV-1">
          <mxGeometry x="177" y="70" width="200" height="40" as="geometry" />
        </mxCell>
        <mxCell id="CqPZ0iAuUNlFJW2x2mbF-3" value="Crear cuenta" style="rounded=1;whiteSpace=wrap;html=1;absoluteArcSize=1;arcSize=14;strokeWidth=2;" vertex="1" parent="WIyWlLk6GJQsqaUBKTNV-1">
          <mxGeometry x="227" y="130" width="100" height="30" as="geometry" />
        </mxCell>
        <mxCell id="CqPZ0iAuUNlFJW2x2mbF-4" value="Iniciar Sesión" style="rounded=1;whiteSpace=wrap;html=1;absoluteArcSize=1;arcSize=14;strokeWidth=2;" vertex="1" parent="WIyWlLk6GJQsqaUBKTNV-1">
          <mxGeometry x="650" y="75" width="100" height="30" as="geometry" />
        </mxCell>
        <mxCell id="CqPZ0iAuUNlFJW2x2mbF-17" style="edgeStyle=orthogonalEdgeStyle;rounded=0;orthogonalLoop=1;jettySize=auto;html=1;exitX=0.5;exitY=1;exitDx=0;exitDy=0;exitPerimeter=0;entryX=0.5;entryY=0;entryDx=0;entryDy=0;" edge="1" parent="WIyWlLk6GJQsqaUBKTNV-1" source="CqPZ0iAuUNlFJW2x2mbF-5" target="CqPZ0iAuUNlFJW2x2mbF-8">
          <mxGeometry relative="1" as="geometry" />
        </mxCell>
        <mxCell id="CqPZ0iAuUNlFJW2x2mbF-27" style="edgeStyle=orthogonalEdgeStyle;rounded=0;orthogonalLoop=1;jettySize=auto;html=1;exitX=0;exitY=0.5;exitDx=0;exitDy=0;exitPerimeter=0;entryX=0;entryY=0.5;entryDx=0;entryDy=0;" edge="1" parent="WIyWlLk6GJQsqaUBKTNV-1" source="CqPZ0iAuUNlFJW2x2mbF-5" target="CqPZ0iAuUNlFJW2x2mbF-3">
          <mxGeometry relative="1" as="geometry" />
        </mxCell>
        <mxCell id="CqPZ0iAuUNlFJW2x2mbF-5" value="¿Formulario completo?" style="strokeWidth=2;html=1;shape=mxgraph.flowchart.decision;whiteSpace=wrap;" vertex="1" parent="WIyWlLk6GJQsqaUBKTNV-1">
          <mxGeometry x="190.5" y="180" width="173" height="70" as="geometry" />
        </mxCell>
        <mxCell id="CqPZ0iAuUNlFJW2x2mbF-8" value="Registra usuario y envia correo de confirmación con el código único" style="rounded=0;whiteSpace=wrap;html=1;" vertex="1" parent="WIyWlLk6GJQsqaUBKTNV-1">
          <mxGeometry x="180.5" y="270" width="193" height="70" as="geometry" />
        </mxCell>
        <mxCell id="CqPZ0iAuUNlFJW2x2mbF-10" value="¿Registro exitoso?" style="strokeWidth=2;html=1;shape=mxgraph.flowchart.decision;whiteSpace=wrap;" vertex="1" parent="WIyWlLk6GJQsqaUBKTNV-1">
          <mxGeometry x="185.5" y="360" width="183" height="50" as="geometry" />
        </mxCell>
        <mxCell id="CqPZ0iAuUNlFJW2x2mbF-11" value="Registro exitoso" style="strokeWidth=2;html=1;shape=mxgraph.flowchart.display;whiteSpace=wrap;" vertex="1" parent="WIyWlLk6GJQsqaUBKTNV-1">
          <mxGeometry x="227" y="430" width="100" height="60" as="geometry" />
        </mxCell>
        <mxCell id="CqPZ0iAuUNlFJW2x2mbF-12" value="1" style="strokeWidth=2;html=1;shape=mxgraph.flowchart.start_1;whiteSpace=wrap;" vertex="1" parent="WIyWlLk6GJQsqaUBKTNV-1">
          <mxGeometry x="255.5" y="510" width="43" height="40" as="geometry" />
        </mxCell>
        <mxCell id="CqPZ0iAuUNlFJW2x2mbF-13" style="edgeStyle=orthogonalEdgeStyle;rounded=0;orthogonalLoop=1;jettySize=auto;html=1;exitX=0.5;exitY=1;exitDx=0;exitDy=0;exitPerimeter=0;entryX=0.5;entryY=0;entryDx=0;entryDy=0;entryPerimeter=0;" edge="1" parent="WIyWlLk6GJQsqaUBKTNV-1" source="CqPZ0iAuUNlFJW2x2mbF-0" target="CqPZ0iAuUNlFJW2x2mbF-2">
          <mxGeometry relative="1" as="geometry" />
        </mxCell>
        <mxCell id="CqPZ0iAuUNlFJW2x2mbF-19" style="edgeStyle=orthogonalEdgeStyle;rounded=0;orthogonalLoop=1;jettySize=auto;html=1;exitX=0.5;exitY=1;exitDx=0;exitDy=0;entryX=0.5;entryY=0;entryDx=0;entryDy=0;entryPerimeter=0;" edge="1" parent="WIyWlLk6GJQsqaUBKTNV-1" source="CqPZ0iAuUNlFJW2x2mbF-8" target="CqPZ0iAuUNlFJW2x2mbF-10">
          <mxGeometry relative="1" as="geometry" />
        </mxCell>
        <mxCell id="CqPZ0iAuUNlFJW2x2mbF-20" style="edgeStyle=orthogonalEdgeStyle;rounded=0;orthogonalLoop=1;jettySize=auto;html=1;exitX=0.5;exitY=1;exitDx=0;exitDy=0;exitPerimeter=0;entryX=0.5;entryY=0;entryDx=0;entryDy=0;entryPerimeter=0;" edge="1" parent="WIyWlLk6GJQsqaUBKTNV-1" source="CqPZ0iAuUNlFJW2x2mbF-10" target="CqPZ0iAuUNlFJW2x2mbF-11">
          <mxGeometry relative="1" as="geometry" />
        </mxCell>
        <mxCell id="CqPZ0iAuUNlFJW2x2mbF-21" value="Registro no exitoso" style="strokeWidth=2;html=1;shape=mxgraph.flowchart.display;whiteSpace=wrap;direction=west;" vertex="1" parent="WIyWlLk6GJQsqaUBKTNV-1">
          <mxGeometry x="20" y="355" width="100" height="60" as="geometry" />
        </mxCell>
        <mxCell id="CqPZ0iAuUNlFJW2x2mbF-22" style="edgeStyle=orthogonalEdgeStyle;rounded=0;orthogonalLoop=1;jettySize=auto;html=1;exitX=0;exitY=0.5;exitDx=0;exitDy=0;exitPerimeter=0;entryX=0;entryY=0.5;entryDx=0;entryDy=0;entryPerimeter=0;" edge="1" parent="WIyWlLk6GJQsqaUBKTNV-1" source="CqPZ0iAuUNlFJW2x2mbF-10" target="CqPZ0iAuUNlFJW2x2mbF-21">
          <mxGeometry relative="1" as="geometry" />
        </mxCell>
        <mxCell id="CqPZ0iAuUNlFJW2x2mbF-23" style="edgeStyle=orthogonalEdgeStyle;rounded=0;orthogonalLoop=1;jettySize=auto;html=1;exitX=0.5;exitY=1;exitDx=0;exitDy=0;exitPerimeter=0;entryX=0.5;entryY=0;entryDx=0;entryDy=0;entryPerimeter=0;" edge="1" parent="WIyWlLk6GJQsqaUBKTNV-1" source="CqPZ0iAuUNlFJW2x2mbF-11" target="CqPZ0iAuUNlFJW2x2mbF-12">
          <mxGeometry relative="1" as="geometry" />
        </mxCell>
        <mxCell id="CqPZ0iAuUNlFJW2x2mbF-25" style="edgeStyle=orthogonalEdgeStyle;rounded=0;orthogonalLoop=1;jettySize=auto;html=1;exitX=0.5;exitY=1;exitDx=0;exitDy=0;entryX=0.5;entryY=0;entryDx=0;entryDy=0;entryPerimeter=0;" edge="1" parent="WIyWlLk6GJQsqaUBKTNV-1" source="CqPZ0iAuUNlFJW2x2mbF-3" target="CqPZ0iAuUNlFJW2x2mbF-5">
          <mxGeometry relative="1" as="geometry" />
        </mxCell>
        <mxCell id="CqPZ0iAuUNlFJW2x2mbF-33" style="edgeStyle=orthogonalEdgeStyle;rounded=0;orthogonalLoop=1;jettySize=auto;html=1;exitX=1;exitY=0.5;exitDx=0;exitDy=0;exitPerimeter=0;entryX=1;entryY=0.5;entryDx=0;entryDy=0;" edge="1" parent="WIyWlLk6GJQsqaUBKTNV-1" source="CqPZ0iAuUNlFJW2x2mbF-28" target="CqPZ0iAuUNlFJW2x2mbF-4">
          <mxGeometry relative="1" as="geometry" />
        </mxCell>
        <mxCell id="CqPZ0iAuUNlFJW2x2mbF-34" style="edgeStyle=orthogonalEdgeStyle;rounded=0;orthogonalLoop=1;jettySize=auto;html=1;exitX=0.5;exitY=1;exitDx=0;exitDy=0;exitPerimeter=0;entryX=0.5;entryY=0;entryDx=0;entryDy=0;" edge="1" parent="WIyWlLk6GJQsqaUBKTNV-1" source="CqPZ0iAuUNlFJW2x2mbF-28" target="CqPZ0iAuUNlFJW2x2mbF-29">
          <mxGeometry relative="1" as="geometry" />
        </mxCell>
        <mxCell id="CqPZ0iAuUNlFJW2x2mbF-28" value="¿Formulario completo?" style="strokeWidth=2;html=1;shape=mxgraph.flowchart.decision;whiteSpace=wrap;" vertex="1" parent="WIyWlLk6GJQsqaUBKTNV-1">
          <mxGeometry x="613.5" y="120" width="173" height="70" as="geometry" />
        </mxCell>
        <mxCell id="CqPZ0iAuUNlFJW2x2mbF-29" value="Inicio de sesión" style="rounded=0;whiteSpace=wrap;html=1;" vertex="1" parent="WIyWlLk6GJQsqaUBKTNV-1">
          <mxGeometry x="641.75" y="210" width="116.5" height="40" as="geometry" />
        </mxCell>
        <mxCell id="CqPZ0iAuUNlFJW2x2mbF-30" value="¿Inicio de sesión correcto" style="strokeWidth=2;html=1;shape=mxgraph.flowchart.decision;whiteSpace=wrap;" vertex="1" parent="WIyWlLk6GJQsqaUBKTNV-1">
          <mxGeometry x="608.5" y="270" width="183" height="60" as="geometry" />
        </mxCell>
        <mxCell id="CqPZ0iAuUNlFJW2x2mbF-31" value="Error" style="strokeWidth=2;html=1;shape=mxgraph.flowchart.display;whiteSpace=wrap;direction=west;" vertex="1" parent="WIyWlLk6GJQsqaUBKTNV-1">
          <mxGeometry x="470" y="270" width="100" height="60" as="geometry" />
        </mxCell>
        <mxCell id="CqPZ0iAuUNlFJW2x2mbF-32" style="edgeStyle=orthogonalEdgeStyle;rounded=0;orthogonalLoop=1;jettySize=auto;html=1;exitX=0.5;exitY=1;exitDx=0;exitDy=0;entryX=0.5;entryY=0;entryDx=0;entryDy=0;entryPerimeter=0;" edge="1" parent="WIyWlLk6GJQsqaUBKTNV-1" source="CqPZ0iAuUNlFJW2x2mbF-4" target="CqPZ0iAuUNlFJW2x2mbF-28">
          <mxGeometry relative="1" as="geometry" />
        </mxCell>
        <mxCell id="CqPZ0iAuUNlFJW2x2mbF-35" style="edgeStyle=orthogonalEdgeStyle;rounded=0;orthogonalLoop=1;jettySize=auto;html=1;exitX=0.5;exitY=1;exitDx=0;exitDy=0;entryX=0.5;entryY=0;entryDx=0;entryDy=0;entryPerimeter=0;" edge="1" parent="WIyWlLk6GJQsqaUBKTNV-1" source="CqPZ0iAuUNlFJW2x2mbF-29" target="CqPZ0iAuUNlFJW2x2mbF-30">
          <mxGeometry relative="1" as="geometry" />
        </mxCell>
        <mxCell id="CqPZ0iAuUNlFJW2x2mbF-36" style="edgeStyle=orthogonalEdgeStyle;rounded=0;orthogonalLoop=1;jettySize=auto;html=1;exitX=0;exitY=0.5;exitDx=0;exitDy=0;exitPerimeter=0;entryX=0;entryY=0.5;entryDx=0;entryDy=0;entryPerimeter=0;" edge="1" parent="WIyWlLk6GJQsqaUBKTNV-1" source="CqPZ0iAuUNlFJW2x2mbF-30" target="CqPZ0iAuUNlFJW2x2mbF-31">
          <mxGeometry relative="1" as="geometry" />
        </mxCell>
        <mxCell id="CqPZ0iAuUNlFJW2x2mbF-40" style="edgeStyle=orthogonalEdgeStyle;rounded=0;orthogonalLoop=1;jettySize=auto;html=1;exitX=0.5;exitY=1;exitDx=0;exitDy=0;exitPerimeter=0;entryX=0.5;entryY=0;entryDx=0;entryDy=0;" edge="1" parent="WIyWlLk6GJQsqaUBKTNV-1" source="CqPZ0iAuUNlFJW2x2mbF-37" target="CqPZ0iAuUNlFJW2x2mbF-39">
          <mxGeometry relative="1" as="geometry" />
        </mxCell>
        <mxCell id="CqPZ0iAuUNlFJW2x2mbF-37" value="Inicio de sesión exitoso" style="strokeWidth=2;html=1;shape=mxgraph.flowchart.display;whiteSpace=wrap;" vertex="1" parent="WIyWlLk6GJQsqaUBKTNV-1">
          <mxGeometry x="650" y="350" width="100" height="60" as="geometry" />
        </mxCell>
        <mxCell id="CqPZ0iAuUNlFJW2x2mbF-38" style="edgeStyle=orthogonalEdgeStyle;rounded=0;orthogonalLoop=1;jettySize=auto;html=1;exitX=0.5;exitY=1;exitDx=0;exitDy=0;exitPerimeter=0;entryX=0.5;entryY=0;entryDx=0;entryDy=0;entryPerimeter=0;" edge="1" parent="WIyWlLk6GJQsqaUBKTNV-1" source="CqPZ0iAuUNlFJW2x2mbF-30" target="CqPZ0iAuUNlFJW2x2mbF-37">
          <mxGeometry relative="1" as="geometry" />
        </mxCell>
        <mxCell id="CqPZ0iAuUNlFJW2x2mbF-39" value="Dirige a página principal del usuario" style="rounded=1;whiteSpace=wrap;html=1;absoluteArcSize=1;arcSize=14;strokeWidth=2;" vertex="1" parent="WIyWlLk6GJQsqaUBKTNV-1">
          <mxGeometry x="635" y="430" width="130" height="50" as="geometry" />
        </mxCell>
        <mxCell id="CqPZ0iAuUNlFJW2x2mbF-41" style="edgeStyle=orthogonalEdgeStyle;rounded=0;orthogonalLoop=1;jettySize=auto;html=1;exitX=0.5;exitY=1;exitDx=0;exitDy=0;entryX=0.5;entryY=0;entryDx=0;entryDy=0;entryPerimeter=0;" edge="1" parent="WIyWlLk6GJQsqaUBKTNV-1" source="CqPZ0iAuUNlFJW2x2mbF-39" target="CqPZ0iAuUNlFJW2x2mbF-1">
          <mxGeometry relative="1" as="geometry" />
        </mxCell>
        <mxCell id="CqPZ0iAuUNlFJW2x2mbF-42" value="No" style="text;html=1;align=center;verticalAlign=middle;resizable=0;points=[];autosize=1;strokeColor=none;fillColor=none;" vertex="1" parent="WIyWlLk6GJQsqaUBKTNV-1">
          <mxGeometry x="360" y="68" width="40" height="30" as="geometry" />
        </mxCell>
        <mxCell id="CqPZ0iAuUNlFJW2x2mbF-43" value="Si" style="text;html=1;align=center;verticalAlign=middle;resizable=0;points=[];autosize=1;strokeColor=none;fillColor=none;" vertex="1" parent="WIyWlLk6GJQsqaUBKTNV-1">
          <mxGeometry x="275" y="98" width="30" height="30" as="geometry" />
        </mxCell>
        <mxCell id="CqPZ0iAuUNlFJW2x2mbF-44" value="Si" style="text;html=1;align=center;verticalAlign=middle;resizable=0;points=[];autosize=1;strokeColor=none;fillColor=none;" vertex="1" parent="WIyWlLk6GJQsqaUBKTNV-1">
          <mxGeometry x="275" y="238" width="30" height="30" as="geometry" />
        </mxCell>
        <mxCell id="CqPZ0iAuUNlFJW2x2mbF-45" value="No" style="text;html=1;align=center;verticalAlign=middle;resizable=0;points=[];autosize=1;strokeColor=none;fillColor=none;" vertex="1" parent="WIyWlLk6GJQsqaUBKTNV-1">
          <mxGeometry x="170" y="208" width="40" height="30" as="geometry" />
        </mxCell>
        <mxCell id="CqPZ0iAuUNlFJW2x2mbF-46" value="Si" style="text;html=1;align=center;verticalAlign=middle;resizable=0;points=[];autosize=1;strokeColor=none;fillColor=none;" vertex="1" parent="WIyWlLk6GJQsqaUBKTNV-1">
          <mxGeometry x="275" y="398" width="30" height="30" as="geometry" />
        </mxCell>
        <mxCell id="CqPZ0iAuUNlFJW2x2mbF-47" value="No" style="text;html=1;align=center;verticalAlign=middle;resizable=0;points=[];autosize=1;strokeColor=none;fillColor=none;" vertex="1" parent="WIyWlLk6GJQsqaUBKTNV-1">
          <mxGeometry x="160" y="378" width="40" height="30" as="geometry" />
        </mxCell>
        <mxCell id="CqPZ0iAuUNlFJW2x2mbF-48" value="Si" style="text;html=1;align=center;verticalAlign=middle;resizable=0;points=[];autosize=1;strokeColor=none;fillColor=none;" vertex="1" parent="WIyWlLk6GJQsqaUBKTNV-1">
          <mxGeometry x="695" y="178" width="30" height="30" as="geometry" />
        </mxCell>
        <mxCell id="CqPZ0iAuUNlFJW2x2mbF-49" value="No" style="text;html=1;align=center;verticalAlign=middle;resizable=0;points=[];autosize=1;strokeColor=none;fillColor=none;" vertex="1" parent="WIyWlLk6GJQsqaUBKTNV-1">
          <mxGeometry x="770" y="128" width="40" height="30" as="geometry" />
        </mxCell>
        <mxCell id="CqPZ0iAuUNlFJW2x2mbF-50" value="Si" style="text;html=1;align=center;verticalAlign=middle;resizable=0;points=[];autosize=1;strokeColor=none;fillColor=none;" vertex="1" parent="WIyWlLk6GJQsqaUBKTNV-1">
          <mxGeometry x="695" y="318" width="30" height="30" as="geometry" />
        </mxCell>
        <mxCell id="CqPZ0iAuUNlFJW2x2mbF-51" value="No" style="text;html=1;align=center;verticalAlign=middle;resizable=0;points=[];autosize=1;strokeColor=none;fillColor=none;" vertex="1" parent="WIyWlLk6GJQsqaUBKTNV-1">
          <mxGeometry x="580" y="278" width="40" height="30" as="geometry" />
        </mxCell>
      </root>
    </mxGraphModel>
  </diagram>
</mxfile>
